<svg width="120" height="120" viewBox="0 0 120 120" fill="none" xmlns="http://www.w3.org/2000/svg">
<path d="M0 60C0 77.4309 26.8631 91.5628 60 91.5628C93.1369 91.5628 120 77.4309 120 60C120 42.5691 93.1359 28.4372 60 28.4372C26.8641 28.4372 0 42.5691 0 60Z" fill="url(#paint0_radial_124_211)"/>
<path d="M60 89.2191C91.8422 89.2191 117.656 76.1363 117.656 60C117.656 43.8619 91.8422 30.7809 60 30.7809C28.1578 30.7809 2.34375 43.8619 2.34375 60C2.34375 76.1363 28.1578 89.2191 60 89.2191Z" fill="#777BB3"/>
<path d="M32.5988 63.6225C35.2172 63.6225 37.1709 63.1397 38.4075 62.1881C39.6319 61.245 40.4766 59.6128 40.92 57.3366C41.3325 55.2084 41.175 53.7234 40.4513 52.9209C39.7125 52.1016 38.1141 51.6862 35.7009 51.6862H31.5159L29.1975 63.6225H32.5988ZM18.9122 78.3253C18.8162 78.3252 18.7214 78.3038 18.6346 78.2627C18.5478 78.2216 18.4712 78.1618 18.4103 78.0876C18.3493 78.0134 18.3056 77.9266 18.2821 77.8335C18.2587 77.7404 18.2562 77.6433 18.2747 77.5491L24.4219 45.9197C24.4509 45.7718 24.5303 45.6386 24.6466 45.5427C24.7628 45.4468 24.9087 45.3942 25.0594 45.3937H38.31C42.4744 45.3937 45.5738 46.5244 47.5228 48.7547C49.4803 50.9953 50.0859 54.1303 49.32 58.0687C49.0078 59.6728 48.4716 61.1625 47.7263 62.4975C46.9506 63.8708 45.9607 65.1114 44.7938 66.1725C43.3584 67.515 41.7338 68.49 39.9684 69.0628C38.2322 69.6291 36.0009 69.9159 33.3403 69.9159H27.9741L26.4422 77.7984C26.4133 77.9468 26.3337 78.0805 26.217 78.1766C26.1004 78.2727 25.954 78.3253 25.8028 78.3253H18.9122Z" fill="black"/>
<path d="M32.0531 52.3369H35.7009C38.6138 52.3369 39.6253 52.9763 39.9694 53.3578C40.5384 53.9897 40.6472 55.3238 40.2797 57.2128C39.8681 59.3288 39.105 60.8297 38.0109 61.6716C36.8916 62.5341 35.0691 62.9709 32.5988 62.9709H29.9869L32.0531 52.3369ZM38.31 44.7431H25.0603C24.7582 44.7432 24.4654 44.8482 24.2321 45.0402C23.9989 45.2323 23.8396 45.4994 23.7816 45.7959L17.6344 77.4262C17.5981 77.6147 17.6038 77.8088 17.6512 77.9947C17.6986 78.1806 17.7865 78.3538 17.9086 78.5018C18.0306 78.6499 18.1839 78.7691 18.3574 78.8511C18.5309 78.933 18.7203 78.9757 18.9122 78.9759H25.8028C26.1049 78.9757 26.3976 78.8704 26.6307 78.6782C26.8638 78.486 27.0228 78.2187 27.0806 77.9222L28.5103 70.5666H33.3394C36.0694 70.5666 38.3681 70.2684 40.1709 69.6816C42.0244 69.0797 43.7297 68.0587 45.2391 66.6469C46.4546 65.5401 47.486 64.2467 48.2944 62.8153C49.0734 61.4212 49.6341 59.865 49.9584 58.1925C50.7647 54.0459 50.1094 50.7263 48.0122 48.3263C45.9347 45.9478 42.6703 44.7422 38.31 44.7422V44.7431ZM28.4072 64.2722H32.5988C35.3769 64.2728 37.4456 63.7494 38.805 62.7019C40.1644 61.6556 41.0825 59.9084 41.5594 57.4603C42.0144 55.1091 41.8066 53.4503 40.9359 52.4841C40.0641 51.5178 38.3191 51.0347 35.7009 51.0347H30.9797L28.4072 64.2722ZM38.3109 46.0425C42.2972 46.0425 45.2044 47.0888 47.0325 49.1813C48.8606 51.2738 49.4106 54.1944 48.6825 57.9431C48.3813 59.4881 47.8734 60.9 47.1591 62.1787C46.4434 63.4587 45.5088 64.6297 44.355 65.6916C42.98 66.9791 41.4513 67.8962 39.7688 68.4431C38.0869 68.9906 35.9441 69.2641 33.3403 69.2634H27.4378L25.8038 77.6728H18.9131L25.0613 46.0425H38.3109Z" fill="white"/>
<path d="M65.1178 69.9159C65.0217 69.9161 64.9268 69.8949 64.8399 69.854C64.753 69.813 64.6762 69.7534 64.615 69.6793C64.5539 69.6051 64.51 69.5184 64.4863 69.4253C64.4627 69.3321 64.46 69.2349 64.4784 69.1406L67.1972 55.1456C67.4569 53.8144 67.3931 52.86 67.0191 52.455C66.7894 52.2084 66.1012 51.795 64.0659 51.795H59.1384L55.7203 69.39C55.691 69.5382 55.6111 69.6715 55.4943 69.7673C55.3775 69.8631 55.231 69.9153 55.08 69.915H48.2456C48.1496 69.9151 48.0548 69.8939 47.9679 69.853C47.881 69.8122 47.8042 69.7526 47.7431 69.6786C47.6819 69.6046 47.6378 69.5181 47.614 69.425C47.5902 69.332 47.5872 69.2349 47.6053 69.1406L53.7534 37.5103C53.7826 37.3621 53.8622 37.2287 53.9789 37.1327C54.0955 37.0368 54.2418 36.9844 54.3928 36.9844H61.2272C61.3232 36.9843 61.418 37.0055 61.5049 37.0463C61.5918 37.0872 61.6686 37.1467 61.7297 37.2207C61.7909 37.2947 61.835 37.3813 61.8588 37.4743C61.8826 37.5673 61.8856 37.6645 61.8675 37.7588L60.3844 45.3937H65.6841C69.7219 45.3937 72.4594 46.1044 74.0541 47.5697C75.6787 49.0631 76.1869 51.4509 75.5616 54.6694L72.7012 69.39C72.6719 69.538 72.5922 69.6712 72.4756 69.767C72.359 69.8627 72.2127 69.915 72.0619 69.915L65.1178 69.9159Z" fill="black"/>
<path d="M61.2281 36.3328H54.3928C54.0906 36.3329 53.7977 36.438 53.5644 36.6303C53.3311 36.8225 53.1719 37.0899 53.1141 37.3866L46.9669 69.0159C46.9304 69.2044 46.9361 69.3986 46.9834 69.5847C47.0307 69.7707 47.1186 69.944 47.2406 70.0922C47.3627 70.2403 47.516 70.3597 47.6896 70.4417C47.8632 70.5237 48.0527 70.5663 48.2447 70.5666H55.08C55.3823 70.5665 55.6752 70.4614 55.9084 70.2691C56.1417 70.0769 56.3009 69.8095 56.3588 69.5128L59.6747 52.4456H64.0641C66.0966 52.4456 66.5241 52.8797 66.54 52.8994C66.6638 53.0306 66.826 53.6447 66.5578 55.0219L63.8391 69.0159C63.8026 69.2045 63.8083 69.3988 63.8556 69.5849C63.903 69.771 63.9909 69.9444 64.1131 70.0925C64.2353 70.2407 64.3887 70.36 64.5624 70.442C64.7361 70.5239 64.9258 70.5665 65.1178 70.5666H72.0628C72.365 70.5663 72.6576 70.461 72.8907 70.2688C73.1238 70.0766 73.2828 69.8094 73.3406 69.5128L76.201 54.7941C76.8713 51.3384 76.2975 48.7472 74.4947 47.0906C72.7735 45.51 69.8916 44.7422 65.6841 44.7422H61.1747L62.5069 37.8844C62.5435 37.6958 62.538 37.5014 62.4907 37.3151C62.4434 37.1289 62.3555 36.9554 62.2333 36.8072C62.1111 36.6589 61.9576 36.5395 61.7838 36.4575C61.61 36.3755 61.4203 36.3329 61.2281 36.3328ZM61.2281 37.6359L59.5941 46.0434H65.6841C69.516 46.0434 72.1588 46.7122 73.6125 48.0497C75.0675 49.3859 75.5044 51.5516 74.9231 54.5466L72.0619 69.2644H65.1178L67.8375 55.2694C68.1469 53.6775 68.0328 52.5919 67.4953 52.0125C66.9578 51.4338 65.8147 51.1444 64.066 51.1444H58.6013L55.08 69.2634H48.2438L54.3919 37.6331H61.2281V37.6359Z" fill="white"/>
<path d="M86.3775 63.6225C88.9959 63.6225 90.9506 63.1397 92.1881 62.1881C93.4106 61.245 94.2562 59.6128 94.6997 57.3366C95.1122 55.2084 94.9556 53.7234 94.2309 52.9209C93.4922 52.1016 91.8937 51.6862 89.4806 51.6862H85.2965L82.9762 63.6225H86.3775ZM72.6937 78.3253C72.5976 78.3254 72.5025 78.3043 72.4155 78.2633C72.3285 78.2223 72.2517 78.1626 72.1905 78.0883C72.1294 78.0141 72.0855 77.9272 72.0619 77.834C72.0384 77.7407 72.0358 77.6434 72.0544 77.5491L78.2015 45.9197C78.2307 45.7715 78.3103 45.638 78.427 45.5421C78.5436 45.4462 78.6899 45.3937 78.8409 45.3937H92.0906C96.255 45.3937 99.3544 46.5244 101.302 48.7547C103.261 50.9953 103.866 54.1303 103.1 58.0687C102.807 59.62 102.269 61.1149 101.507 62.4975C100.731 63.8708 99.7413 65.1114 98.5744 66.1725C97.14 67.515 95.5134 68.49 93.749 69.0628C92.0128 69.6291 89.7815 69.9159 87.12 69.9159H81.7547L80.2237 77.7984C80.1948 77.9469 80.115 78.0807 79.9982 78.1769C79.8814 78.273 79.7347 78.3255 79.5834 78.3253H72.6937Z" fill="black"/>
<path d="M85.8328 52.3369H89.4806C92.3934 52.3369 93.405 52.9763 93.7481 53.3578C94.32 53.9897 94.4269 55.3238 94.0603 57.2128C93.6478 59.3288 92.8847 60.8297 91.7906 61.6716C90.6703 62.5341 88.8478 62.9709 86.3784 62.9709H83.7665L85.8328 52.3369ZM92.0897 44.7431H78.84C78.538 44.7434 78.2455 44.8485 78.0124 45.0405C77.7793 45.2326 77.6202 45.4996 77.5622 45.7959L71.414 77.4262C71.3777 77.6147 71.3835 77.8089 71.4309 77.9949C71.4784 78.1809 71.5663 78.3541 71.6885 78.5022C71.8107 78.6503 71.9641 78.7695 72.1377 78.8514C72.3113 78.9333 72.5008 78.9758 72.6928 78.9759H79.5834C79.8855 78.9757 80.1782 78.8704 80.4113 78.6782C80.6444 78.486 80.8034 78.2187 80.8612 77.9222L82.2909 70.5666H87.119C89.8481 70.5666 92.1478 70.2684 93.9497 69.6816C95.804 69.0797 97.5094 68.0587 99.0197 66.6459C100.235 65.5394 101.266 64.2463 102.074 62.8153C102.854 61.4212 103.413 59.865 103.738 58.1925C104.544 54.0459 103.89 50.7263 101.792 48.3263C99.7144 45.9478 96.4509 44.7422 92.0887 44.7422L92.0897 44.7431ZM82.1869 64.2722H86.3775C89.1556 64.2728 91.225 63.7494 92.5856 62.7019C93.945 61.6556 94.8625 59.9084 95.3381 57.4603C95.795 55.1091 95.5872 53.4503 94.7147 52.4841C93.8422 51.5178 92.0975 51.0347 89.4806 51.0347H84.7603L82.1869 64.2722ZM92.0897 46.0425C96.0759 46.0425 98.9831 47.0888 100.811 49.1813C102.639 51.2738 103.189 54.1944 102.46 57.9431C102.16 59.4881 101.653 60.9 100.938 62.1787C100.223 63.4587 99.2878 64.6297 98.1328 65.6916C96.7578 66.9791 95.229 67.8962 93.5465 68.4431C91.8653 68.9906 89.7228 69.2641 87.119 69.2634H81.2175L79.5815 77.6728H72.6909L78.839 46.0425H92.0897Z" fill="white"/>
<defs>
<radialGradient id="paint0_radial_124_211" cx="0" cy="0" r="1" gradientUnits="userSpaceOnUse" gradientTransform="translate(36.0244 39.5334) scale(78.7888)">
<stop stop-color="#AEB2D5"/>
<stop offset="0.3" stop-color="#AEB2D5"/>
<stop offset="0.75" stop-color="#484C89"/>
<stop offset="1" stop-color="#484C89"/>
</radialGradient>
</defs>
</svg>
