<svg width="120" height="120" viewBox="0 0 120 120" fill="none" xmlns="http://www.w3.org/2000/svg">
<path d="M59.4291 11.4825C55.4709 11.5012 51.6928 11.8378 48.3666 12.4266C38.5697 14.1572 36.7922 17.7797 36.7922 24.4612V33.2841H59.9419V36.225H28.1034C21.3759 36.225 15.4847 40.2684 13.6416 47.9634C11.5153 56.7806 11.4216 62.2837 13.6416 71.4909C15.2869 78.345 19.2169 83.2275 25.9453 83.2275H33.9056V72.6506C33.9056 65.0091 40.5159 58.2694 48.3675 58.2694H71.491C77.9278 58.2694 83.0653 52.9687 83.0653 46.5056V24.4622C83.0653 18.1875 77.7722 13.4747 71.491 12.4275C67.5122 11.7656 63.3863 11.4647 59.4291 11.4825ZM46.9097 18.5784C49.3003 18.5784 51.2541 20.5631 51.2541 23.0044C51.2541 25.4353 49.3013 27.4012 46.9097 27.4012C44.5097 27.4012 42.5663 25.4353 42.5663 23.0044C42.5653 20.5631 44.5097 18.5784 46.9097 18.5784Z" fill="url(#paint0_linear_124_216)"/>
<path d="M85.9519 36.225V46.5056C85.9519 54.4744 79.1944 61.1822 71.49 61.1822H48.3666C42.0328 61.1822 36.7922 66.6038 36.7922 72.9469V94.9922C36.7922 101.265 42.2466 104.956 48.3666 106.755C55.6941 108.908 62.7215 109.298 71.49 106.755C77.3175 105.067 83.0644 101.671 83.0644 94.9922V86.1684H59.9419V83.2266H94.6406C101.368 83.2266 103.877 78.5344 106.217 71.49C108.634 64.2384 108.53 57.2644 106.217 47.9625C104.554 41.2641 101.378 36.2241 94.6406 36.2241L85.9519 36.225ZM72.9459 92.0503C75.3469 92.0503 77.2903 94.0163 77.2903 96.4491C77.2903 98.8884 75.3459 100.873 72.9459 100.873C70.5553 100.873 68.6025 98.8884 68.6025 96.4491C68.6025 94.0163 70.5553 92.0503 72.9459 92.0503Z" fill="url(#paint1_linear_124_216)"/>
<path opacity="0.444" d="M91.2272 112.122C91.2272 115.444 77.3372 118.137 60.2044 118.137C43.0706 118.137 29.1806 115.444 29.1806 112.122C29.1806 108.801 43.0697 106.106 60.2044 106.106C77.3372 106.106 91.2272 108.799 91.2272 112.122Z" fill="url(#paint2_radial_124_216)"/>
<defs>
<linearGradient id="paint0_linear_124_216" x1="9.69083" y1="14.2412" x2="63.085" y2="59.7755" gradientUnits="userSpaceOnUse">
<stop stop-color="#5A9FD4"/>
<stop offset="1" stop-color="#306998"/>
</linearGradient>
<linearGradient id="paint1_linear_124_216" x1="83.1739" y1="88.0803" x2="64.0259" y2="61.2283" gradientUnits="userSpaceOnUse">
<stop stop-color="#FFD43B"/>
<stop offset="1" stop-color="#FFE873"/>
</linearGradient>
<radialGradient id="paint2_radial_124_216" cx="0" cy="0" r="1" gradientUnits="userSpaceOnUse" gradientTransform="translate(60.079 111.95) rotate(-90) scale(6.01717 26.4505)">
<stop stop-color="#B8B8B8" stop-opacity="0.498"/>
<stop offset="1" stop-color="#7F7F7F" stop-opacity="0"/>
</radialGradient>
</defs>
</svg>
